REM DIRINDEX 1\3,1\2\4,1\2\5,1\2\6
REM DIRNAME cjc137,folder01,folder02,folder03,folder04,folder05
TITLE ""
FILE "005.mp3" MP3
  TRACK 01 AUDIO
    TITLE "4:cjc137_0171"
    INDEX 01 00:00:00
  TRACK 02 AUDIO
    TITLE "0:"
    INDEX 01 00:01:03
  TRACK 03 AUDIO
    TITLE "6:cjc137_0172"
    INDEX 01 00:01:17
  TRACK 04 AUDIO
    TITLE "0:"
    INDEX 01 00:02:08
  TRACK 05 AUDIO
    TITLE "5:cjc137_0173"
    INDEX 01 00:02:20
  TRACK 06 AUDIO
    TITLE "0:"
    INDEX 01 00:03:23
  TRACK 07 AUDIO
    TITLE "4:cjc137_0174"
    INDEX 01 00:04:33
  TRACK 08 AUDIO
    TITLE "0:"
    INDEX 01 00:05:30
  TRACK 09 AUDIO
    TITLE "6:cjc137_0175"
    INDEX 01 00:05:46
  TRACK 10 AUDIO
    TITLE "0:"
    INDEX 01 00:06:45
  TRACK 11 AUDIO
    TITLE "5:cjc137_0176"
    INDEX 01 00:06:59
  TRACK 12 AUDIO
    TITLE "0:"
    INDEX 01 00:07:56
  TRACK 13 AUDIO
    TITLE "4:cjc137_0177"
    INDEX 01 00:08:70
  TRACK 14 AUDIO
    TITLE "0:"
    INDEX 01 00:09:73
  TRACK 15 AUDIO
    TITLE "6:cjc137_0178"
    INDEX 01 00:10:12
  TRACK 16 AUDIO
    TITLE "0:"
    INDEX 01 00:10:72
  TRACK 17 AUDIO
    TITLE "5:cjc137_0179"
    INDEX 01 00:11:11
  TRACK 18 AUDIO
    TITLE "0:"
    INDEX 01 00:12:18
  TRACK 19 AUDIO
    TITLE "4:cjc137_0180"
    INDEX 01 00:13:28
  TRACK 20 AUDIO
    TITLE "0:"
    INDEX 01 00:14:33
  TRACK 21 AUDIO
    TITLE "6:cjc137_0181"
    INDEX 01 00:14:47
  TRACK 22 AUDIO
    TITLE "0:"
    INDEX 01 00:15:32
  TRACK 23 AUDIO
    TITLE "5:cjc137_0182"
    INDEX 01 00:15:38
  TRACK 24 AUDIO
    TITLE "0:"
    INDEX 01 00:16:48
  TRACK 25 AUDIO
    TITLE "4:cjc137_0183"
    INDEX 01 00:17:55
  TRACK 26 AUDIO
    TITLE "0:"
    INDEX 01 00:18:68
  TRACK 27 AUDIO
    TITLE "6:cjc137_0184"
    INDEX 01 00:19:07
  TRACK 28 AUDIO
    TITLE "0:"
    INDEX 01 00:20:12
  TRACK 29 AUDIO
    TITLE "5:cjc137_0185"
    INDEX 01 00:20:24
  TRACK 30 AUDIO
    TITLE "0:"
    INDEX 01 00:21:35
  TRACK 31 AUDIO
    TITLE "4:cjc137_0186"
    INDEX 01 00:22:46
  TRACK 32 AUDIO
    TITLE "0:"
    INDEX 01 00:23:42
  TRACK 33 AUDIO
    TITLE "6:cjc137_0187"
    INDEX 01 00:23:55
  TRACK 34 AUDIO
    TITLE "0:"
    INDEX 01 00:24:51
  TRACK 35 AUDIO
    TITLE "5:cjc137_0188"
    INDEX 01 00:24:65
  TRACK 36 AUDIO
    TITLE "0:"
    INDEX 01 00:25:64
  TRACK 37 AUDIO
    TITLE "4:cjc137_0189"
    INDEX 01 00:26:71
  TRACK 38 AUDIO
    TITLE "0:"
    INDEX 01 00:28:00
  TRACK 39 AUDIO
    TITLE "6:cjc137_0190"
    INDEX 01 00:28:13
  TRACK 40 AUDIO
    TITLE "0:"
    INDEX 01 00:29:34
  TRACK 41 AUDIO
    TITLE "5:cjc137_0191"
    INDEX 01 00:29:44
  TRACK 42 AUDIO
    TITLE "0:"
    INDEX 01 00:30:50
  TRACK 43 AUDIO
    TITLE "4:cjc137_0192"
    INDEX 01 00:31:59
  TRACK 44 AUDIO
    TITLE "0:"
    INDEX 01 00:32:72
  TRACK 45 AUDIO
    TITLE "6:cjc137_0193"
    INDEX 01 00:33:07
  TRACK 46 AUDIO
    TITLE "0:"
    INDEX 01 00:34:04
  TRACK 47 AUDIO
    TITLE "5:cjc137_0194"
    INDEX 01 00:34:12
  TRACK 48 AUDIO
    TITLE "0:"
    INDEX 01 00:35:25
  TRACK 49 AUDIO
    TITLE "4:cjc137_0195"
    INDEX 01 00:36:33
  TRACK 50 AUDIO
    TITLE "0:"
    INDEX 01 00:37:28
  TRACK 51 AUDIO
    TITLE "6:cjc137_0196"
    INDEX 01 00:37:42
  TRACK 52 AUDIO
    TITLE "0:"
    INDEX 01 00:39:15
  TRACK 53 AUDIO
    TITLE "5:cjc137_0197"
    INDEX 01 00:39:25
  TRACK 54 AUDIO
    TITLE "0:"
    INDEX 01 00:40:19
  TRACK 55 AUDIO
    TITLE "4:cjc137_0198"
    INDEX 01 00:41:28
  TRACK 56 AUDIO
    TITLE "0:"
    INDEX 01 00:42:55
  TRACK 57 AUDIO
    TITLE "6:cjc137_0199"
    INDEX 01 00:42:68
  TRACK 58 AUDIO
    TITLE "0:"
    INDEX 01 00:44:03
  TRACK 59 AUDIO
    TITLE "5:cjc137_0200"
    INDEX 01 00:44:14
  TRACK 60 AUDIO
    TITLE "0:"
    INDEX 01 00:45:43
  TRACK 61 AUDIO
    TITLE "4:cjc137_0201"
    INDEX 01 00:46:51
  TRACK 62 AUDIO
    TITLE "0:"
    INDEX 01 00:48:04
  TRACK 63 AUDIO
    TITLE "6:cjc137_0202"
    INDEX 01 00:48:16
  TRACK 64 AUDIO
    TITLE "0:"
    INDEX 01 00:49:29
  TRACK 65 AUDIO
    TITLE "5:cjc137_0203"
    INDEX 01 00:49:41
  TRACK 66 AUDIO
    TITLE "0:"
    INDEX 01 00:50:68
  TRACK 67 AUDIO
    TITLE "4:cjc137_0204"
    INDEX 01 00:52:02
  TRACK 68 AUDIO
    TITLE "0:"
    INDEX 01 00:53:19
  TRACK 69 AUDIO
    TITLE "6:cjc137_0205"
    INDEX 01 00:53:33
  TRACK 70 AUDIO
    TITLE "0:"
    INDEX 01 00:54:30
  TRACK 71 AUDIO
    TITLE "5:cjc137_0206"
    INDEX 01 00:54:40
  TRACK 72 AUDIO
    TITLE "0:"
    INDEX 01 00:55:57
  TRACK 73 AUDIO
    TITLE "4:cjc137_0207"
    INDEX 01 00:56:67
  TRACK 74 AUDIO
    TITLE "0:"
    INDEX 01 00:58:28
  TRACK 75 AUDIO
    TITLE "6:cjc137_0208"
    INDEX 01 00:58:38
  TRACK 76 AUDIO
    TITLE "0:"
    INDEX 01 01:00:51
  TRACK 77 AUDIO
    TITLE "5:cjc137_0209"
    INDEX 01 01:00:62
  TRACK 78 AUDIO
    TITLE "0:"
    INDEX 01 01:02:24
  TRACK 79 AUDIO
    TITLE "4:cjc137_0210"
    INDEX 01 01:03:29
  TRACK 80 AUDIO
    TITLE "0:"
    INDEX 01 01:04:48
  TRACK 81 AUDIO
    TITLE "6:cjc137_0211"
    INDEX 01 01:04:60
  TRACK 82 AUDIO
    TITLE "0:"
    INDEX 01 01:05:73
  TRACK 83 AUDIO
    TITLE "5:cjc137_0212"
    INDEX 01 01:06:08
  TRACK 84 AUDIO
    TITLE "0:"
    INDEX 01 01:07:29
